<?xml version="1.0" encoding="utf-8"?>
<!-- Generator: Adobe Illustrator 16.0.0, SVG Export Plug-In . SVG Version: 6.00 Build 0)  -->
<!DOCTYPE svg PUBLIC "-//W3C//DTD SVG 1.1//EN" "http://www.w3.org/Graphics/SVG/1.1/DTD/svg11.dtd">
<svg version="1.1" id="Layer_1" xmlns="http://www.w3.org/2000/svg" xmlns:xlink="http://www.w3.org/1999/xlink" x="0px" y="0px"
	 width="124.807px" height="40.641px" viewBox="0 0 124.807 40.641" enable-background="new 0 0 124.807 40.641"
	 xml:space="preserve">
<g>
	<g>
		<polygon fill="#FF7B00" points="4.74,25.687 4.74,12.648 18.039,4.97 29.33,11.487 32.719,9.531 33.35,9.168 18.039,0.328 
			0.721,10.325 0.721,28.01 		"/>
		<polygon fill="#02040F" points="34.729,13.012 31.339,14.967 31.339,28.005 18.039,35.686 6.75,29.166 2.728,31.49 18.039,40.328 
			35.359,30.328 35.359,12.646 		"/>
		<rect x="13.015" y="15.303" fill="#FF7B00" width="4.019" height="4.02"/>
		<rect x="19.043" y="15.303" fill="#02040F" width="4.02" height="4.02"/>
		<rect x="13.015" y="21.332" fill="#02040F" width="4.019" height="4.021"/>
		<rect x="19.043" y="21.332" fill="#02040F" width="4.02" height="4.021"/>
	</g>
	<path d="M41.352,31.345V9.311h6.507c1.947,0,3.675,0.436,5.183,1.303c1.508,0.867,2.676,2.098,3.503,3.692
		c0.827,1.594,1.24,3.42,1.24,5.478v1.105c0,2.088-0.416,3.923-1.249,5.508c-0.832,1.584-2.018,2.805-3.556,3.662
		c-1.539,0.857-3.301,1.286-5.289,1.286H41.352z M45.18,12.398v15.889h2.497c2.008,0,3.549-0.628,4.623-1.883
		c1.074-1.257,1.622-3.061,1.642-5.41v-1.227c0-2.391-0.52-4.217-1.559-5.478s-2.547-1.892-4.525-1.892H45.18z"/>
	<path d="M79.184,20.903c0,2.159-0.374,4.053-1.12,5.683c-0.747,1.629-1.814,2.88-3.201,3.753c-1.387,0.872-2.984,1.309-4.789,1.309
		c-1.786,0-3.377-0.437-4.775-1.309c-1.397-0.873-2.477-2.116-3.238-3.731c-0.762-1.613-1.148-3.476-1.158-5.584v-1.24
		c0-2.148,0.381-4.045,1.143-5.689c0.762-1.645,1.836-2.903,3.224-3.776c1.387-0.872,2.979-1.309,4.774-1.309
		c1.796,0,3.387,0.431,4.774,1.294c1.388,0.862,2.459,2.104,3.216,3.723c0.757,1.619,1.14,3.503,1.15,5.652V20.903z M75.355,19.753
		c0-2.441-0.462-4.313-1.385-5.614c-0.923-1.301-2.232-1.952-3.927-1.952c-1.654,0-2.948,0.648-3.882,1.944
		c-0.933,1.297-1.409,3.131-1.43,5.502v1.271c0,2.421,0.472,4.292,1.415,5.614c0.943,1.321,2.252,1.982,3.927,1.982
		c1.695,0,2.999-0.646,3.912-1.938c0.913-1.291,1.37-3.178,1.37-5.659V19.753z"/>
	<path d="M87.961,9.311l6.356,16.889l6.34-16.889h4.948v22.034h-3.813v-7.264l0.378-9.715l-6.507,16.979h-2.74l-6.491-16.964
		l0.378,9.7v7.264h-3.813V9.311H87.961z"/>
	<path d="M123.008,21.508h-9.049v6.779h10.578v3.058H110.13V9.311h14.3v3.088h-10.472v6.083h9.049V21.508z"/>
</g>
</svg>
